<svg viewBox="0 0 64 64" xmlns="http://www.w3.org/2000/svg">
  <!-- Background circle -->
  <circle cx="32" cy="32" r="30" fill="#4A90E2"/>
  
  <!-- Document/paper -->
  <rect x="18" y="16" width="28" height="34" rx="2" fill="white"/>
  
  <!-- Folded corner -->
  <path d="M 46 16 L 46 22 L 40 16 Z" fill="#E8F4FD"/>
  
  <!-- Text lines on document -->
  <line x1="23" y1="24" x2="41" y2="24" stroke="#4A90E2" stroke-width="1.5" stroke-linecap="round"/>
  <line x1="23" y1="28" x2="41" y2="28" stroke="#4A90E2" stroke-width="1.5" stroke-linecap="round"/>
  <line x1="23" y1="32" x2="38" y2="32" stroke="#4A90E2" stroke-width="1.5" stroke-linecap="round"/>
  <line x1="23" y1="36" x2="41" y2="36" stroke="#CBD5E0" stroke-width="1.5" stroke-linecap="round"/>
  <line x1="23" y1="40" x2="35" y2="40" stroke="#CBD5E0" stroke-width="1.5" stroke-linecap="round"/>
  
  <!-- Magic wand/sparkle effect -->
  <g transform="translate(38, 38)">
    <!-- Wand -->
    <line x1="2" y1="10" x2="10" y2="2" stroke="#FFD700" stroke-width="2" stroke-linecap="round"/>
    <circle cx="10" cy="2" r="2" fill="#FFD700"/>
    
    <!-- Sparkles -->
    <path d="M 4 4 L 4.5 5.5 L 6 6 L 4.5 6.5 L 4 8 L 3.5 6.5 L 2 6 L 3.5 5.5 Z" fill="#FFA500"/>
    <path d="M 12 8 L 12.3 8.8 L 13 9 L 12.3 9.2 L 12 10 L 11.7 9.2 L 11 9 L 11.7 8.8 Z" fill="#FFA500"/>
    <path d="M 8 12 L 8.3 12.8 L 9 13 L 8.3 13.2 L 8 14 L 7.7 13.2 L 7 13 L 7.7 12.8 Z" fill="#FFD700"/>
  </g>
</svg>